<svg width="86" height="85" viewBox="0 0 86 85" fill="none" xmlns="http://www.w3.org/2000/svg">
    <path fill-rule="evenodd" clip-rule="evenodd"
        d="M0.759497 42.1367C0.759497 40.5002 2.0892 39.1735 3.72946 39.1735L39.961 39.1735L39.961 3.0237C39.961 1.38714 41.2907 0.0604358 42.931 0.0604385C44.5713 0.0604385 45.901 1.38713 45.901 3.0237L45.901 39.1735L82.1326 39.1735C83.7728 39.1735 85.1025 40.5002 85.1025 42.1367C85.1025 43.7733 83.7728 45.1 82.1326 45.1L45.901 45.1L45.901 81.2497C45.901 82.8863 44.5713 84.213 42.931 84.213C41.2907 84.213 39.961 82.8863 39.961 81.2497L39.961 45.1L3.72946 45.1C2.0892 45.1 0.759497 43.7733 0.759497 42.1367Z"
        fill="#444444" fill-opacity="0.35" />
</svg>
