<svg width="20" height="20" viewBox="0 0 20 20" fill="none" xmlns="http://www.w3.org/2000/svg">
<path d="M16.8581 10.9409C16.6568 10.9409 16.4462 10.8767 16.2449 10.8308C15.8371 10.7407 15.4364 10.621 15.0459 10.4728C14.6212 10.3178 14.1545 10.3259 13.7354 10.4954C13.3164 10.6648 12.9746 10.9837 12.7759 11.3907L12.5746 11.8038C11.6831 11.3064 10.8639 10.6887 10.1399 9.9679C9.42121 9.24181 8.80527 8.42023 8.30935 7.52614L8.69377 7.26912C9.09958 7.06985 9.41756 6.7271 9.58653 6.30682C9.75551 5.88655 9.76353 5.41845 9.60906 4.9926C9.46373 4.6001 9.34448 4.19838 9.25209 3.79008C9.20633 3.58813 9.16972 3.377 9.14226 3.16587C9.03111 2.51929 8.69343 1.93375 8.19002 1.5147C7.68661 1.09565 7.05055 0.870636 6.3964 0.880174H3.65054C3.25609 0.87646 2.86546 0.958029 2.50526 1.11933C2.14505 1.28063 1.82374 1.51787 1.56317 1.81491C1.30261 2.11194 1.10892 2.4618 0.99529 2.84066C0.88166 3.21951 0.850758 3.61848 0.904687 4.01039C1.3923 7.85604 3.1435 11.4292 5.88169 14.1654C8.61988 16.9015 12.189 18.6448 16.0252 19.1199H16.373C17.048 19.1209 17.6996 18.8725 18.2036 18.4222C18.4932 18.1625 18.7245 17.8441 18.8822 17.4881C19.04 17.132 19.1207 16.7465 19.1189 16.3568V13.603C19.1077 12.9654 18.8761 12.3514 18.4638 11.8659C18.0515 11.3804 17.484 11.0535 16.8581 10.9409ZM17.3158 16.4486C17.3156 16.579 17.2878 16.7078 17.2341 16.8265C17.1804 16.9452 17.1022 17.0511 17.0046 17.1371C16.9026 17.2262 16.783 17.2926 16.6537 17.3322C16.5244 17.3717 16.3882 17.3834 16.254 17.3666C12.8262 16.9258 9.64222 15.353 7.20434 12.8964C4.76646 10.4398 3.21341 7.23914 2.79018 3.79926C2.77561 3.6648 2.78838 3.52877 2.8277 3.39939C2.86703 3.27002 2.93211 3.14998 3.019 3.04654C3.10477 2.94862 3.21035 2.87015 3.32871 2.81633C3.44707 2.76252 3.57551 2.7346 3.70546 2.73444H6.45132C6.66417 2.72969 6.87201 2.7995 7.03906 2.93186C7.20612 3.06422 7.32195 3.25085 7.3666 3.45962C7.40322 3.71053 7.44898 3.95837 7.5039 4.20316C7.60963 4.68705 7.75035 5.16258 7.92493 5.62598L6.64353 6.22265C6.53397 6.27307 6.43541 6.34469 6.35353 6.43341C6.27164 6.52213 6.20804 6.6262 6.16636 6.73964C6.12469 6.85308 6.10577 6.97366 6.11069 7.09445C6.11561 7.21525 6.14428 7.33388 6.19504 7.44353C7.51232 10.2733 9.78044 12.5481 12.602 13.8692C12.8249 13.961 13.0748 13.961 13.2977 13.8692C13.4118 13.8282 13.5167 13.765 13.6063 13.683C13.6958 13.6011 13.7683 13.5021 13.8194 13.3919L14.3868 12.1067C14.86 12.2764 15.3429 12.4174 15.833 12.529C16.0771 12.5841 16.3242 12.63 16.5744 12.6667C16.7825 12.7115 16.9686 12.8276 17.1006 12.9952C17.2326 13.1627 17.3022 13.3712 17.2975 13.5846L17.3158 16.4486Z" fill="white"/>
</svg>
