<svg width="26" height="20" viewBox="0 0 26 20" fill="none" xmlns="http://www.w3.org/2000/svg">
<path d="M25.8367 17.6582C25.8063 17.8912 25.7555 18.1186 25.6793 18.2947C25.5422 18.6073 25.4102 18.6358 24.8922 18.6073C24.2219 18.5732 23.2621 18.6073 22.2465 18.6528C22.2465 18.9654 22.2566 19.1132 22.2566 19.1132C22.3227 19.9714 22.668 19.9998 22.8051 19.9998H24.9887C25.1816 19.9998 25.3594 19.9998 25.4965 19.8975C25.6742 19.7668 25.7504 19.386 25.8164 18.721C25.8266 18.6244 25.8316 18.4994 25.8367 18.3516V18.3459C25.8367 18.3004 25.8418 18.2436 25.8418 18.1811V18.1186C25.8418 17.9651 25.8418 17.7946 25.8367 17.6582ZM0.151562 17.6582C0.182031 17.8912 0.232812 18.1186 0.308984 18.2947C0.446094 18.6073 0.578125 18.6358 1.09609 18.6073C1.76641 18.5732 2.72617 18.6073 3.7418 18.6528C3.7418 18.9654 3.73164 19.1132 3.73164 19.1132C3.66563 19.9714 3.32031 19.9998 3.1832 19.9998H0.999609C0.806641 19.9998 0.644141 19.9998 0.491797 19.8975C0.308984 19.7781 0.237891 19.386 0.171875 18.721C0.161719 18.6244 0.156641 18.4994 0.151562 18.3516V18.3459C0.151562 18.3004 0.146484 18.2436 0.146484 18.1811V18.1186C0.151563 17.9651 0.151562 17.7946 0.151562 17.6582Z" fill="black"/>
<path d="M26 12.2989C26 10.5541 25.7969 8.84911 25.7156 8.66155C25.6547 8.52515 25.2637 8.16709 24.375 7.49076C23.4762 6.80307 23.4965 6.90537 23.334 6.45638C23.4813 6.40523 23.6234 6.30861 23.7098 6.29724C23.9027 6.27451 23.9129 6.47911 24.3141 6.47911C24.7152 6.47911 25.5836 6.35976 25.7613 6.16084C25.9391 5.96192 25.9949 5.89372 25.9949 5.71753C25.9949 5.54135 25.9035 5.17761 25.7309 4.96164C25.5582 4.74567 24.8219 4.63768 24.3902 4.57516C23.9586 4.51265 23.8977 4.57516 23.7859 4.65473C23.6082 4.77977 23.598 5.92214 23.598 5.92214L23.1766 5.9335C22.9023 5.17761 22.5215 3.65445 21.9273 2.45524C21.2773 1.14805 20.5969 0.738847 20.3125 0.636545C20.0332 0.539926 19.7793 0.471725 17.875 0.255754C15.9301 0.0284172 14.3813 0 13 0C11.6187 0 10.0699 0.0341006 8.125 0.255754C6.2207 0.477408 5.9668 0.539926 5.6875 0.636545C5.4082 0.733163 4.72266 1.14805 4.07266 2.45524C3.47852 3.65445 3.09766 5.17761 2.82344 5.9335L2.40195 5.92214C2.40195 5.92214 2.39687 4.77977 2.21406 4.65473C2.10234 4.57516 2.04141 4.50696 1.60977 4.57516C1.17813 4.64336 0.441797 4.74567 0.269141 4.96164C0.0964844 5.17761 0.00507813 5.54135 0.00507813 5.71753C0.00507813 5.89372 0.0609375 5.96761 0.238672 6.16084C0.416406 6.35976 1.28477 6.47911 1.68594 6.47911C2.08711 6.47911 2.09727 6.27451 2.29023 6.29724C2.37656 6.30861 2.52383 6.40523 2.66602 6.45638C2.49844 6.90537 2.52383 6.80307 1.625 7.49076C0.736328 8.17278 0.340234 8.52515 0.284375 8.66155C0.203125 8.84911 0 10.5541 0 12.2989C0 14.0438 0.111719 15.6124 0.111719 16.1694C0.111719 16.4024 0.111719 16.8116 0.157422 17.2038C0.187891 17.4368 0.233594 17.6641 0.314844 17.8403C0.451953 18.1529 0.578906 18.1813 1.10195 18.1529C1.77227 18.1188 2.74219 18.1529 3.74258 18.1984C4.41289 18.2268 5.09844 18.2552 5.70781 18.2722C7.23125 18.3063 6.78437 18.0222 7.43437 18.0335C8.08437 18.0449 10.6488 18.1642 12.9949 18.1642C15.341 18.1642 17.9105 18.0449 18.5555 18.0335C19.2055 18.0222 18.7586 18.3063 20.282 18.2722C20.8914 18.2609 21.577 18.2268 22.2473 18.1984C23.2477 18.1586 24.2227 18.1188 24.8879 18.1529C25.4109 18.1813 25.5379 18.1529 25.675 17.8403C25.7512 17.6641 25.802 17.4368 25.8324 17.2038C25.8832 16.8116 25.8781 16.4024 25.8781 16.1694C25.8883 15.6181 26 14.0438 26 12.2989ZM4.37734 3.69423C4.62109 3.05769 5.35234 1.77891 5.70781 1.55158C5.79414 1.49474 6.55078 1.22762 8.44492 1.08554C10.1867 0.954817 12.1113 0.903666 13.0051 0.903666C13.8988 0.903666 15.8234 0.954817 17.5652 1.08554C19.4543 1.22762 20.2211 1.48906 20.3023 1.55158C20.7594 1.90395 21.3891 3.05769 21.6328 3.69423C21.8766 4.33078 22.2016 5.58113 22.1406 5.75163C22.0797 5.92214 22.2016 6.00739 21.3789 5.9335C20.5613 5.8653 15.4273 5.79142 13.0102 5.79142C10.598 5.79142 5.46406 5.8653 4.64141 5.9335C3.81875 6.00171 3.94063 5.92214 3.87969 5.75163C3.80859 5.58113 4.13359 4.33646 4.37734 3.69423ZM6.24609 10.8099C5.88047 10.9122 5.66211 11.1338 5.20508 11.1282C4.74805 11.1282 3.51406 10.8951 3.25 10.8838C2.98594 10.8724 2.75234 11.0827 2.61523 11.1225C2.47813 11.1623 2.20898 11.0543 1.80273 10.9122C1.39648 10.7701 1.15781 10.8099 1.02578 10.1904C0.888672 9.57658 1.02578 8.69565 1.02578 8.69565C1.9043 8.65018 2.75234 8.74112 4.3418 9.24126C5.93125 9.7414 6.81484 10.7019 6.81484 10.7019C6.81484 10.7019 6.61172 10.7076 6.24609 10.8099ZM18.1898 15.2884C17.4637 15.3964 14.4219 15.4248 13 15.4248C11.5781 15.4248 8.53633 15.3907 7.81016 15.2884C7.06875 15.1804 6.10391 14.1858 6.76914 13.3959C7.66797 12.3217 7.50039 12.3558 9.5418 12.0602C11.309 11.8045 12.6496 11.7931 13 11.7931C13.3453 11.7931 14.691 11.8102 16.4582 12.0602C18.4996 12.3558 18.332 12.3217 19.2309 13.3959C19.8961 14.1858 18.9313 15.1804 18.1898 15.2884ZM24.9742 10.1961C24.8371 10.8099 24.6035 10.7758 24.1973 10.9179C23.791 11.06 23.5219 11.1623 23.3848 11.1282C23.2477 11.0941 23.0141 10.8838 22.75 10.8895C22.4859 10.9008 21.252 11.1338 20.7949 11.1338C20.3379 11.1338 20.1195 10.9179 19.7539 10.8156C19.3883 10.7133 19.1852 10.7133 19.1852 10.7133C19.1852 10.7133 20.0637 9.74709 21.6582 9.25263C23.2477 8.75249 24.0957 8.66155 24.9742 8.70702C24.9742 8.69565 25.1113 9.57658 24.9742 10.1961Z" fill="black"/>
</svg>
