<svg width="20" height="20" viewBox="0 0 20 20" fill="none" xmlns="http://www.w3.org/2000/svg">
<path d="M18.1107 14.1594C18.7715 12.8743 19.1189 11.4433 19.1189 9.99988C19.1189 4.97145 15.0273 0.879883 9.99891 0.879883C4.97047 0.879883 0.878906 4.97145 0.878906 9.99988C0.878906 15.0283 4.97047 19.1199 9.99891 19.1199C11.4432 19.1199 12.8742 18.7725 14.1593 18.1125L18.0892 19.095C18.1555 19.1116 18.2227 19.1199 18.2898 19.1199C18.507 19.1199 18.7193 19.0345 18.876 18.877C19.0816 18.6705 19.1653 18.372 19.094 18.0893L18.1107 14.1594ZM16.4252 14.2506L17.1498 17.1508L14.2497 16.4253C14.0449 16.3748 13.8276 16.4038 13.6436 16.5066C12.5318 17.1317 11.2707 17.4617 9.99891 17.4617C5.88413 17.4617 2.53709 14.1138 2.53709 9.99988C2.53709 5.88593 5.88413 2.53806 9.99891 2.53806C14.1137 2.53806 17.4607 5.88593 17.4607 9.99988C17.4607 11.2717 17.1307 12.5319 16.5064 13.6437C16.4028 13.8286 16.373 14.0458 16.4252 14.2506Z" fill="white"/>
</svg>
