<svg width="45" height="45" viewBox="0 0 45 45" fill="none" xmlns="http://www.w3.org/2000/svg">
<circle cx="22.5" cy="22.5" r="22.5" fill="#FFBC81"/>
<path d="M22.5 24.9523C25.5565 24.9523 28.0554 22.2791 28.0554 18.9872C28.0554 15.6733 25.5565 13 22.5 13C19.4435 13 16.9446 15.6733 16.9446 18.9651C16.9446 22.2791 19.4435 24.9523 22.5 24.9523ZM22.5 14.7674C24.6478 14.7674 26.4033 16.6453 26.4033 18.9651C26.4033 21.2849 24.6478 23.1628 22.5 23.1628C20.3522 23.1628 18.5967 21.2849 18.5967 18.9651C18.5967 16.6453 20.3522 14.7674 22.5 14.7674ZM25.0815 25.5267C24.813 25.4384 24.5033 25.5047 24.2967 25.7035L22.5 27.3384L20.7033 25.7035C20.4761 25.5047 20.187 25.4384 19.9185 25.5267C18.762 25.9244 13 28.0453 13 31.1163C13 31.6023 13.3717 32 13.8261 32H31.1739C31.6283 32 32 31.6023 32 31.1163C32 28.0453 26.238 25.9244 25.0815 25.5267ZM15.0859 30.2326C15.9946 29.1942 18.1837 28.0453 20.0011 27.3826L21.963 29.1721C22.2728 29.4593 22.7272 29.4593 23.037 29.1721L24.9989 27.3826C26.8163 28.0674 29.0054 29.2163 29.9141 30.2326H15.0859Z" fill="white"/>
</svg>
