<svg width="9" height="18" viewBox="0 0 9 18" fill="none" xmlns="http://www.w3.org/2000/svg">
<path d="M5.49268 0.330566V3.10449H4.06396V0.330566H5.49268ZM5.31641 15.4805V17.9668H3.89697V15.4805H5.31641ZM6.71729 12.4839C6.71729 12.1252 6.64307 11.8128 6.49463 11.5469C6.35238 11.2747 6.11735 11.0304 5.78955 10.814C5.46175 10.5913 5.02262 10.3841 4.47217 10.1924C3.6805 9.91406 2.98779 9.60173 2.39404 9.25537C1.80648 8.90283 1.3488 8.46989 1.021 7.95654C0.699382 7.43701 0.538574 6.79069 0.538574 6.01758C0.538574 5.25684 0.711751 4.59814 1.05811 4.0415C1.41064 3.48486 1.89925 3.05501 2.52393 2.75195C3.1486 2.44889 3.87842 2.29736 4.71338 2.29736C5.35661 2.29736 5.9349 2.39323 6.44824 2.58496C6.96777 2.77669 7.40999 3.05811 7.7749 3.4292C8.13981 3.80029 8.41813 4.25798 8.60986 4.80225C8.80778 5.34033 8.90674 5.95882 8.90674 6.65771H6.68018C6.68018 6.26188 6.63379 5.90934 6.54102 5.6001C6.45443 5.28467 6.32454 5.01872 6.15137 4.80225C5.97819 4.57959 5.7679 4.40951 5.52051 4.29199C5.2793 4.17448 5.00407 4.11572 4.69482 4.11572C4.2557 4.11572 3.89388 4.19922 3.60938 4.36621C3.32487 4.52702 3.11458 4.74967 2.97852 5.03418C2.84863 5.31868 2.78369 5.64339 2.78369 6.0083C2.78369 6.36084 2.85173 6.67008 2.98779 6.93604C3.12386 7.20199 3.35579 7.4432 3.68359 7.65967C4.01758 7.86995 4.47526 8.08333 5.05664 8.2998C5.85449 8.58431 6.54411 8.90283 7.12549 9.25537C7.71305 9.60173 8.16455 10.0316 8.47998 10.5449C8.8016 11.0521 8.9624 11.6922 8.9624 12.4653C8.9624 13.2632 8.77686 13.9404 8.40576 14.4971C8.04085 15.0537 7.52751 15.4774 6.86572 15.7681C6.21012 16.0526 5.44629 16.1948 4.57422 16.1948C4.02376 16.1948 3.4764 16.1237 2.93213 15.9814C2.39404 15.833 1.90544 15.5918 1.46631 15.2578C1.02718 14.9238 0.677734 14.4816 0.417969 13.9312C0.158203 13.3745 0.0283203 12.6942 0.0283203 11.8901H2.27344C2.27344 12.3726 2.33838 12.7746 2.46826 13.0962C2.59814 13.4178 2.77441 13.6714 2.99707 13.8569C3.21973 14.0425 3.46712 14.1755 3.73926 14.2559C4.01758 14.3363 4.2959 14.3765 4.57422 14.3765C5.03809 14.3765 5.42773 14.2992 5.74316 14.1445C6.06478 13.9837 6.30599 13.7611 6.4668 13.4766C6.63379 13.1859 6.71729 12.855 6.71729 12.4839Z" fill="url(#paint0_linear_405_742)"/>
<defs>
<linearGradient id="paint0_linear_405_742" x1="4.5" y1="-1" x2="4.5" y2="29" gradientUnits="userSpaceOnUse">
<stop stop-color="#FEB26C"/>
<stop offset="1" stop-color="#EC600E"/>
</linearGradient>
</defs>
</svg>
