<svg width="16" height="12" viewBox="0 0 16 12" fill="none" xmlns="http://www.w3.org/2000/svg">
<path d="M11.7543 4.85986C11.657 4.90849 11.5749 4.985 11.5172 5.08055C11.4596 5.17611 11.4289 5.28682 11.4286 5.39992V7.20015H6.85714C6.70559 7.20015 6.56025 7.26337 6.45308 7.37591C6.34592 7.48845 6.28571 7.64108 6.28571 7.80023V9.00038C6.28571 9.15953 6.34592 9.31216 6.45308 9.4247C6.56025 9.53723 6.70559 9.60046 6.85714 9.60046H11.4286V11.4007C11.4287 11.516 11.4605 11.6288 11.5201 11.7257C11.5797 11.8225 11.6646 11.8993 11.7647 11.9468C11.8648 11.9943 11.9758 12.0105 12.0844 11.9934C12.193 11.9764 12.2946 11.9269 12.3771 11.8507L15.8057 8.71234C15.8667 8.65611 15.9155 8.58689 15.949 8.50929C15.9825 8.43169 15.9999 8.34749 16 8.26229C15.9979 8.17419 15.9774 8.08765 15.9398 8.00883C15.9023 7.93001 15.8487 7.86084 15.7829 7.80623L12.3543 4.94387C12.2718 4.87227 12.1718 4.82643 12.0657 4.81158C11.9597 4.79673 11.8518 4.81345 11.7543 4.85986ZM4.24571 7.14014C4.34296 7.09151 4.42513 7.015 4.48276 6.91945C4.54038 6.82389 4.57112 6.71318 4.57143 6.60008V4.79985H9.14286C9.29441 4.79985 9.43976 4.73663 9.54692 4.62409C9.65408 4.51155 9.71429 4.35892 9.71429 4.19977V2.99962C9.71429 2.84047 9.65408 2.68784 9.54692 2.5753C9.43976 2.46277 9.29441 2.39954 9.14286 2.39954H4.57143V0.599317C4.57129 0.483996 4.53951 0.37116 4.4799 0.274312C4.42028 0.177464 4.33535 0.100706 4.23528 0.0532244C4.1352 0.00574294 4.02422 -0.0104507 3.91561 0.00658098C3.807 0.0236127 3.70536 0.0731484 3.62286 0.14926L0.194286 3.28766C0.133332 3.34389 0.0844806 3.41311 0.0509812 3.49071C0.0174819 3.56831 0.000102741 3.65251 0 3.73771C0.00208499 3.82581 0.0226218 3.91235 0.060151 3.99117C0.0976801 4.06999 0.15128 4.13916 0.217143 4.19377L3.64571 7.05613C3.7282 7.12773 3.82817 7.17357 3.93425 7.18842C4.04033 7.20327 4.14825 7.18655 4.24571 7.14014Z" fill="#72978F"/>
</svg>
