<svg width="20" height="18" viewBox="0 0 20 18" fill="none" xmlns="http://www.w3.org/2000/svg">
<path d="M14.5 0C12.75 0 11.1001 0.784781 10 2.06002C8.89986 0.784781 7.25 0 5.5 0C2.3999 0 0 2.35411 0 5.39508C0 9.12239 3.3999 12.1145 8.54981 16.7245L10 18L11.4502 16.7245C16.6 12.1145 20 9.12234 20 5.39508C20 2.35411 17.6001 0 14.5 0ZM10.6171 15.4339L10.4143 15.6155L10 15.9798L9.58577 15.6155L9.38317 15.4342C6.95923 13.2647 4.86582 11.391 3.48192 9.71569C2.13784 8.08852 1.53846 6.756 1.53846 5.39508C1.53846 4.32328 1.94337 3.33581 2.67861 2.61464C3.41139 1.89586 4.41337 1.5 5.5 1.5C6.75644 1.5 7.99856 2.07033 8.8226 3.02555L10 4.39036L11.1774 3.02555C12.0014 2.07033 13.2435 1.5 14.5 1.5C15.5867 1.5 16.5886 1.89586 17.3214 2.61459C18.0566 3.33581 18.4615 4.32323 18.4615 5.39508C18.4615 6.756 17.8622 8.08847 16.5182 9.71559C15.1343 11.3909 13.041 13.2645 10.6171 15.4339Z" fill="white"/>
</svg>
