<svg width="20" height="20" viewBox="0 0 20 20" fill="none" xmlns="http://www.w3.org/2000/svg">
<path d="M6.36473 16.8973C6.36473 16.1533 5.70048 15.7812 4.37198 15.7812C3.09984 15.7812 2.46377 16.1682 2.46377 16.942C2.46377 17.6935 3.1562 18.0692 4.54106 18.0692C5.75684 18.0692 6.36473 17.6786 6.36473 16.8973ZM5.65217 8.47098C5.65217 8.01711 5.5314 7.63765 5.28985 7.33259C5.04831 7.02753 4.69002 6.875 4.21498 6.875C3.21659 6.875 2.71739 7.41443 2.71739 8.4933C2.71739 9.49777 3.21659 10 4.21498 10C5.17311 10 5.65217 9.49033 5.65217 8.47098ZM8.90097 4.85491V7.10938C8.61111 7.19866 8.29308 7.28051 7.94686 7.35491C8.07568 7.67485 8.1401 7.98735 8.1401 8.29241C8.1401 9.23735 7.84622 10.0428 7.25845 10.7087C6.67069 11.3746 5.87762 11.7932 4.87923 11.9643C4.55717 12.0238 4.31763 12.1243 4.16063 12.2656C4.00362 12.407 3.92512 12.6228 3.92512 12.9129C3.92512 13.1436 4.0157 13.3352 4.19686 13.4877C4.37802 13.6403 4.61151 13.7593 4.89734 13.8449C5.18317 13.9304 5.49919 14.0123 5.84541 14.0904C6.19163 14.1685 6.53784 14.2634 6.88406 14.375C7.23027 14.4866 7.5463 14.6261 7.83213 14.7935C8.11795 14.9609 8.35145 15.199 8.53261 15.5078C8.71377 15.8166 8.80435 16.183 8.80435 16.6071C8.80435 18.869 7.343 20 4.42029 20C3.86473 20 3.34138 19.9535 2.85024 19.8605C2.3591 19.7675 1.89211 19.615 1.44928 19.4029C1.00644 19.1908 0.654187 18.8858 0.392512 18.4877C0.130837 18.0897 0 17.6153 0 17.0647C0 15.8371 0.732689 15 2.19807 14.5536V14.5089C1.65862 14.2039 1.38889 13.7351 1.38889 13.1027C1.38889 12.2917 1.64251 11.782 2.14976 11.5737V11.529C1.57005 11.3504 1.08897 10.9468 0.706522 10.3181C0.324074 9.68936 0.13285 9.07366 0.13285 8.47098C0.13285 7.43676 0.515298 6.57552 1.28019 5.88728C2.04509 5.19903 2.99114 4.85491 4.11836 4.85491C4.8913 4.85491 5.60789 5.02976 6.26812 5.37946C7.05717 5.37946 7.93478 5.20461 8.90097 4.85491ZM12.7415 14.6875H10.0604C10.0926 14.3527 10.1087 13.8542 10.1087 13.192V6.39509C10.1087 5.69568 10.0926 5.21949 10.0604 4.96652H12.7415C12.7093 5.21205 12.6932 5.67336 12.6932 6.35045V13.192C12.6932 13.8542 12.7093 14.3527 12.7415 14.6875ZM20 12.2098V14.3973C19.4283 14.6875 18.7279 14.8326 17.8985 14.8326C17.3994 14.8326 16.9686 14.7582 16.6063 14.6094C16.244 14.4606 15.9622 14.2746 15.7609 14.0513C15.5596 13.8281 15.4006 13.5379 15.2838 13.1808C15.1671 12.8237 15.0926 12.4814 15.0604 12.154C15.0282 11.8266 15.0121 11.4435 15.0121 11.0045V7.08705H15.0362V7.04241C14.9799 7.04241 14.9034 7.03869 14.8068 7.03125C14.7101 7.02381 14.6377 7.02009 14.5894 7.02009C14.4203 7.02009 14.1828 7.04241 13.8768 7.08705V4.96652H15.0362V4.1183C15.0362 3.71652 15.0121 3.38542 14.9638 3.125H17.7053C17.657 3.43006 17.6328 4.0439 17.6328 4.96652H19.6981V7.08705C19.5773 7.08705 19.4022 7.07961 19.1727 7.06473C18.9432 7.04985 18.7721 7.04241 18.6594 7.04241H17.6328V11.1161C17.6328 12.0908 17.9831 12.5781 18.6836 12.5781C19.1747 12.5781 19.6135 12.4554 20 12.2098ZM13.0435 1.64062C13.0435 2.07217 12.8865 2.44978 12.5725 2.77344C12.2585 3.0971 11.872 3.25893 11.413 3.25893C10.9461 3.25893 10.5515 3.0971 10.2295 2.77344C9.90741 2.44978 9.74638 2.07217 9.74638 1.64062C9.74638 1.20164 9.90539 0.818452 10.2234 0.491071C10.5415 0.16369 10.938 0 11.413 0C11.88 0 12.2685 0.165551 12.5785 0.496652C12.8885 0.827753 13.0435 1.20908 13.0435 1.64062Z" fill="black"/>
</svg>
