<svg width="25" height="25" viewBox="0 0 25 25" fill="none" xmlns="http://www.w3.org/2000/svg">
<path d="M23.9099 13.3184C23.6382 13.3184 23.3665 13.2097 23.1492 13.0196L12.5 2.61478L1.85079 13.0196C1.41613 13.4271 0.736969 13.4271 0.302308 12.9924C-0.105187 12.5577 -0.105187 11.8786 0.329474 11.4439L11.7393 0.305623C12.174 -0.101874 12.826 -0.101874 13.2607 0.305623L24.6705 11.4439C25.1052 11.8514 25.1052 12.5577 24.6977 12.9924C24.4804 13.2097 24.1815 13.3184 23.9099 13.3184ZM21.5192 23.9133V13.2912C21.5192 12.6936 21.0302 12.2046 20.4326 12.2046C19.8349 12.2046 19.3459 12.6936 19.3459 13.2912V22.8267H15.9501V17.013C15.9501 16.2252 15.2981 15.5732 14.5103 15.5732H10.4897C9.70187 15.5732 9.04987 16.2252 9.04987 17.013V22.8267H5.65408V13.2912C5.65408 12.6936 5.16508 12.2046 4.56742 12.2046C3.96976 12.2046 3.48077 12.6936 3.48077 13.2912V23.9133C3.48077 24.511 3.96976 25 4.56742 25H10.1365C10.7342 25 11.2232 24.511 11.2232 23.9133V17.7465H13.804V23.9133C13.804 24.511 14.293 25 14.8906 25H20.4597C21.0574 25 21.5192 24.511 21.5192 23.9133Z" fill="#EB5D0B"/>
</svg>
