<svg width="84" height="94" viewBox="0 0 84 94" fill="none" xmlns="http://www.w3.org/2000/svg">
<path opacity="0.15" d="M36.7073 94C51.4303 94 63.3657 92.6216 63.3657 90.9214C63.3657 89.2211 51.4303 87.8428 36.7073 87.8428C21.9842 87.8428 10.0488 89.2211 10.0488 90.9214C10.0488 92.6216 21.9842 94 36.7073 94Z" fill="#45413C"/>
<path d="M51.2663 76.9652H7.17733C3.69123 76.9652 1.02539 74.2971 1.02539 70.8081V37.9697C1.02539 34.4806 3.69123 31.8125 7.17733 31.8125H51.2663C54.7524 31.8125 57.4182 34.4806 57.4182 37.9697V70.8081C57.4182 74.0919 54.5473 76.9652 51.2663 76.9652Z" fill="#F88B40"/>
<path d="M51.2663 31.8125H7.17733C3.69123 31.8125 1.02539 34.4806 1.02539 37.9697V46.1793C1.02539 42.6902 3.69123 40.0221 7.17733 40.0221H51.2663C54.7524 40.0221 57.4182 42.6902 57.4182 46.1793V37.9697C57.4182 34.4806 54.5473 31.8125 51.2663 31.8125Z" fill="#EB7F43"/>
<path fill-rule="evenodd" clip-rule="evenodd" d="M7.17727 32.8385C4.25744 32.8385 2.05065 35.0472 2.05065 37.9695V70.8079C2.05065 73.7302 4.25744 75.9389 7.17727 75.9389H51.2662C53.981 75.9389 56.3928 73.525 56.3928 70.8079V37.9695C56.3928 35.0472 54.186 32.8385 51.2662 32.8385H7.17727ZM0 37.9695C0 33.9137 3.1249 30.7861 7.17727 30.7861H51.2662C55.3186 30.7861 58.4435 33.9137 58.4435 37.9695V70.8079C58.4435 74.6585 55.1135 77.9913 51.2662 77.9913H7.17727C3.1249 77.9913 0 74.8637 0 70.8079V37.9695Z" fill="#45413C"/>
<path d="M29.1197 1.02637C17.0208 1.02637 7.17773 10.8779 7.17773 22.987V31.6071H16.4057V22.987C16.4057 15.8036 22.1475 10.2622 29.3247 10.2622C36.502 10.2622 42.0388 16.0089 42.0388 22.987V31.6071H51.2667V22.987C51.2667 10.8779 41.4236 1.02637 29.1197 1.02637Z" fill="#FFEBB8"/>
<path d="M29.1197 1.02637C17.0208 1.02637 7.17773 10.8779 7.17773 22.987V28.118C7.17773 16.0089 17.0208 6.15736 29.1197 6.15736C41.2185 6.15736 51.2667 16.0089 51.2667 28.3233V22.987C51.2667 10.8779 41.4236 1.02637 29.1197 1.02637Z" fill="white"/>
<path fill-rule="evenodd" clip-rule="evenodd" d="M6.15234 22.9869C6.15234 10.311 16.4545 0 29.1196 0C41.9835 0 52.2919 10.3047 52.2919 22.9869V31.6069C52.2919 32.1737 51.8329 32.6331 51.2666 32.6331H42.0387C41.4724 32.6331 41.0134 32.1737 41.0134 31.6069V22.9869C41.0134 16.5646 35.9249 11.2882 29.3247 11.2882C22.6921 11.2882 17.4309 16.3916 17.4309 22.9869V31.6069C17.4309 32.1737 16.9719 32.6331 16.4056 32.6331H7.17767C6.6114 32.6331 6.15234 32.1737 6.15234 31.6069V22.9869ZM29.1196 2.0524C17.5871 2.0524 8.20299 11.4445 8.20299 22.9869V30.5807H15.3803V22.9869C15.3803 15.2153 21.6027 9.23579 29.3247 9.23579C37.079 9.23579 43.064 15.4528 43.064 22.9869V30.5807H50.2413V22.9869C50.2413 11.4507 40.8635 2.0524 29.1196 2.0524Z" fill="#45413C"/>
<path d="M78.5401 47.4103C72.5932 41.4583 62.7501 41.4583 56.8032 47.4103C52.0867 52.1308 51.0614 59.1089 53.7272 64.8556L34.2461 84.5587C33.8359 84.9691 33.6309 85.5849 33.6309 86.2006L34.041 90.1001C34.2461 91.1263 34.8612 91.742 35.8866 91.9473L39.7828 92.3578C40.398 92.3578 41.0132 92.1525 41.4233 91.7421L43.679 89.4844C44.0892 89.0739 44.2942 88.6635 44.2942 88.0477V85.9953H46.3449C46.9601 85.9953 47.3702 85.7901 47.7803 85.3796L49.6259 83.5325C50.036 83.122 50.2411 82.7115 50.2411 82.0958V80.8643C50.2411 80.2486 50.4462 79.8381 50.8563 79.4277L53.3171 76.9648C53.7272 76.5543 54.1373 76.3491 54.7525 76.3491H55.9829C56.5981 76.3491 57.0082 76.1438 57.4184 75.7333L60.9045 72.2443C66.6463 74.9124 73.6185 73.8862 78.335 69.1657C84.4869 63.2137 84.4869 53.3622 78.5401 47.4103ZM71.3628 54.5936C70.1324 53.3622 70.1324 51.515 71.3628 50.2836C72.5932 49.0522 74.4388 49.0522 75.6692 50.2836C76.8995 51.515 76.8995 53.3622 75.6692 54.5936C74.4388 55.8251 72.5932 55.8251 71.3628 54.5936Z" fill="#FFAA54"/>
<path d="M56.8036 53.9779C60.9049 49.8731 66.6467 48.6417 71.7733 50.0784C73.0037 49.2574 74.6442 49.2574 75.6696 50.4889C76.2847 51.1046 76.4898 51.7203 76.4898 52.336C77.3101 52.7465 77.9253 53.3622 78.5405 53.9779C80.7962 56.2356 82.0266 58.9037 82.6418 61.5718C83.6671 56.646 82.2316 51.3098 78.5405 47.4103C72.5936 41.4583 62.7505 41.4583 56.8036 47.4103C52.9074 51.3098 51.677 56.646 52.7023 61.5718C53.3175 58.6984 54.7529 56.0303 56.8036 53.9779Z" fill="#FFCC99"/>
<path d="M34.4511 90.9208L53.9323 71.423C53.112 69.7811 52.7019 68.1392 52.4968 66.292L34.2461 84.5583C33.8359 84.9688 33.6309 85.5845 33.6309 86.2003L34.041 90.0998C34.2461 90.305 34.2461 90.5103 34.4511 90.9208Z" fill="#FFCC99"/>
<path fill-rule="evenodd" clip-rule="evenodd" d="M56.0781 46.6845C62.4254 40.3317 72.9177 40.3317 79.265 46.6845C85.6123 53.0372 85.6143 63.5434 79.0538 69.8972C74.2028 74.7474 67.1182 75.9339 61.1345 73.465L58.1433 76.4588C57.8777 76.7246 57.5714 76.9648 57.1939 77.1327C56.812 77.3026 56.4101 77.3751 55.9829 77.3751H54.7525C54.5645 77.3751 54.4537 77.4052 54.3743 77.4406C54.2904 77.4779 54.1866 77.5456 54.042 77.6902L51.5812 80.1531C51.4367 80.2978 51.3691 80.4017 51.3318 80.4856C51.2965 80.5652 51.2664 80.6761 51.2664 80.8642V82.0956C51.2664 82.5232 51.1939 82.9254 51.0242 83.3077C50.8564 83.6855 50.6165 83.9921 50.3509 84.2579L48.5053 86.1051C48.2397 86.3709 47.9333 86.6111 47.5559 86.779C47.1739 86.9489 46.772 87.0214 46.3448 87.0214H45.3195V88.0476C45.3195 88.4752 45.2471 88.8774 45.0773 89.2596C44.9095 89.6375 44.6696 89.9441 44.404 90.2099L42.1483 92.4675C41.5023 93.114 40.6014 93.3838 39.7827 93.3838C39.7469 93.3838 39.7111 93.3819 39.6754 93.3782L35.7792 92.9677C35.7477 92.9644 35.7164 92.9596 35.6854 92.9534C35.0149 92.8192 34.4086 92.5349 33.9311 92.057C33.4536 91.5791 33.1696 90.9723 33.0355 90.3012C33.0293 90.2702 33.0245 90.2389 33.0212 90.2074L32.6111 86.3078C32.6073 86.2721 32.6055 86.2363 32.6055 86.2004C32.6055 85.3819 32.8745 84.4813 33.5189 83.835C33.5196 83.8343 33.5203 83.8336 33.521 83.8329L52.5088 64.6288C50.039 58.6368 51.226 51.5407 56.0781 46.6845ZM77.815 48.1357C72.2685 42.5845 63.0746 42.5845 57.5281 48.1357C53.1264 52.5412 52.1663 59.0539 54.6571 64.4233C54.8375 64.8123 54.7573 65.2725 54.4559 65.5773L34.9748 85.2803L34.971 85.2841C34.8035 85.4518 34.6671 85.7629 34.6568 86.1526L35.0552 89.941C35.1275 90.271 35.249 90.4735 35.3811 90.6058C35.5133 90.738 35.7156 90.8596 36.0453 90.932L39.8305 91.3308C40.2199 91.3204 40.5307 91.1839 40.6982 91.0162L42.954 88.7586C43.0985 88.614 43.1661 88.5101 43.2034 88.4261C43.2387 88.3466 43.2688 88.2357 43.2688 88.0476V85.9952C43.2688 85.4284 43.7279 84.969 44.2942 84.969H46.3448C46.5328 84.969 46.6436 84.9388 46.723 84.9035C46.8069 84.8662 46.9107 84.7985 47.0552 84.6538L48.9008 82.8067C49.0454 82.662 49.113 82.5581 49.1503 82.4741C49.1856 82.3946 49.2157 82.2837 49.2157 82.0956V80.8642C49.2157 80.4366 49.2881 80.0344 49.4579 79.6521C49.6257 79.2743 49.8656 78.9677 50.1312 78.7019L52.592 76.239C52.8576 75.9732 53.1639 75.733 53.5414 75.5651C53.9234 75.3952 54.3252 75.3227 54.7525 75.3227H55.9829C56.1708 75.3227 56.2816 75.2926 56.3611 75.2572C56.445 75.2199 56.5488 75.1522 56.6933 75.0075L60.1794 71.5185C60.4838 71.2139 60.9458 71.1319 61.3362 71.3133C66.7011 73.8063 73.2081 72.8454 77.6099 68.4399L77.6222 68.4276L77.6223 68.4277C83.3594 62.877 83.3594 53.6848 77.815 48.1357ZM74.9441 51.0091C74.1141 50.1784 72.9177 50.1784 72.0877 51.0091C71.2578 51.8398 71.2578 53.0372 72.0877 53.8678C72.9177 54.6985 74.1141 54.6985 74.9441 53.8678C75.774 53.0372 75.774 51.8398 74.9441 51.0091ZM70.6377 49.5578C72.2685 47.9256 74.7633 47.9256 76.3941 49.5578C78.0249 51.19 78.0249 53.6869 76.3941 55.3191C74.7633 56.9513 72.2685 56.9513 70.6377 55.3191C69.0069 53.6869 69.0069 51.19 70.6377 49.5578Z" fill="#45413C"/>
<path fill-rule="evenodd" clip-rule="evenodd" d="M53.833 70.6941C54.2356 71.0926 54.2392 71.7424 53.841 72.1453L35.1801 91.0274C34.7818 91.4303 34.1327 91.4339 33.7301 91.0353C33.3275 90.6368 33.3239 89.987 33.7221 89.5841L52.383 70.702C52.7813 70.2991 53.4304 70.2955 53.833 70.6941Z" fill="#45413C"/>
</svg>
