<svg width="90" height="78" viewBox="0 0 90 78" fill="none" xmlns="http://www.w3.org/2000/svg">
<path d="M66.1738 61.6954V71.1317C66.1738 71.3204 66.1738 71.3204 66.1738 71.3204C66.1738 71.3204 66.1738 71.5091 65.9863 71.5091L70.2979 69.0557C70.2979 69.0557 70.2979 69.0557 70.4853 68.867V59.4307L66.1738 61.6954ZM76.8589 63.7714V77.5484C76.8589 77.7371 76.8589 77.7371 76.8589 77.7371C76.8589 77.7371 76.8589 77.9258 76.6715 77.9258L80.983 75.4724C80.983 75.4724 80.983 75.4724 81.1705 75.2837V61.5066L76.8589 63.7714Z" fill="#F5863A"/>
<path d="M76.858 63.772V77.549C76.858 77.9265 76.4831 78.1152 76.2957 77.9265L72.9214 75.8505C72.5465 75.6618 72.359 75.0956 72.359 74.7181V65.848L66.3603 62.2622V71.1323C66.3603 71.5098 65.9854 71.6985 65.798 71.5098L62.4237 69.4338C62.0488 69.2451 61.8613 68.6789 61.8613 68.3014V54.5244L76.858 63.772Z" fill="#EB7F43"/>
<path d="M26.8055 35.8395L17.9949 40.9351C16.4952 41.8788 14.6206 41.8788 12.746 40.5577C7.68464 37.5381 3.56055 28.4792 3.56055 20.1752C3.56055 15.0796 5.06022 11.4938 7.49718 10.1728L16.3078 5.07715C8.99685 9.41785 12.746 30.1777 21.5566 35.4621C23.4312 36.7832 25.3058 36.7832 26.8055 35.8395Z" fill="#FEAD67"/>
<path d="M34.1183 30.5556L42.9288 25.46L38.9922 23.1953L30.1816 28.2909L34.1183 30.5556Z" fill="#FEAD67"/>
<path d="M34.1172 45.6537L42.9295 40.3693V25.46L34.1172 30.5556V45.6537Z" fill="#F5863A"/>
<path d="M38.9906 23.1952L30.1801 28.2908C27.9306 19.4207 22.3068 10.7393 15.7457 6.96476C11.6216 4.70005 8.05993 4.51132 5.24805 6.20986L14.0586 1.11425C16.8705 -0.584287 20.4322 -0.395561 24.5563 2.05788C31.1174 5.64368 36.7411 14.3251 38.9906 23.1952Z" fill="#FEAD67"/>
<path d="M30.1809 28.2912L34.1175 30.5559V45.654L30.1809 43.3893C27.9314 49.6172 22.1202 51.6932 15.5591 47.9187C6.93598 42.8231 0 29.6122 0 18.2887C0 6.9651 7.12344 1.86949 15.7465 6.9651C22.3076 10.7396 27.9314 19.421 30.1809 28.2912ZM12.7472 40.7471C17.8086 43.7667 21.9327 39.426 21.9327 31.1221C21.9327 22.8181 17.8086 13.7592 12.7472 10.7396C7.68582 7.72 3.56172 12.0607 3.56172 20.3647C3.56172 28.6686 7.68582 37.7275 12.7472 40.7471Z" fill="#EB7F43"/>
<path d="M41.8033 31.4989C41.2409 31.1215 40.4911 31.1215 39.7412 31.4989C39.5538 31.4989 39.3663 31.6876 39.1789 31.6876C37.3043 32.82 35.8046 35.2734 35.4297 37.5381C35.2422 39.048 35.6171 40.1803 36.5544 40.5578L83.6066 68.1118C82.8568 67.7343 82.2944 66.602 82.4819 65.0922C82.6693 62.8275 84.3564 60.374 86.231 59.2417C86.4185 59.0529 86.606 59.0529 86.7934 59.0529C87.5432 58.6755 88.2931 58.6755 88.8555 59.0529L41.8033 31.4989Z" fill="#FEAD67"/>
<path d="M86.2306 59.2415C86.4181 59.0528 86.6056 59.0528 86.7931 59.0528C88.8555 58.2979 90.168 59.6189 89.9805 62.0724C89.793 64.3371 88.1055 66.7905 86.2306 67.9229C86.0431 68.1116 85.8556 68.1116 85.6681 68.1116C83.6056 68.8665 82.2932 67.5454 82.4807 65.092C82.8556 62.8273 84.3556 60.3738 86.2306 59.2415Z" fill="#F5863A"/>
</svg>
