<svg width="19" height="19" viewBox="0 0 19 19" fill="none" xmlns="http://www.w3.org/2000/svg">
<path d="M9.5 11.9523C12.5565 11.9523 15.0554 9.27907 15.0554 5.98721C15.0554 2.67326 12.5565 0 9.5 0C6.44348 0 3.94457 2.67326 3.94457 5.96512C3.94457 9.27907 6.44348 11.9523 9.5 11.9523ZM9.5 1.76744C11.6478 1.76744 13.4033 3.64535 13.4033 5.96512C13.4033 8.28488 11.6478 10.1628 9.5 10.1628C7.35217 10.1628 5.59674 8.28488 5.59674 5.96512C5.59674 3.64535 7.35217 1.76744 9.5 1.76744ZM12.0815 12.5267C11.813 12.4384 11.5033 12.5047 11.2967 12.7035L9.5 14.3384L7.70326 12.7035C7.47609 12.5047 7.18696 12.4384 6.91848 12.5267C5.76196 12.9244 0 15.0453 0 18.1163C0 18.6023 0.371739 19 0.826087 19H18.1739C18.6283 19 19 18.6023 19 18.1163C19 15.0453 13.238 12.9244 12.0815 12.5267ZM2.08587 17.2326C2.99457 16.1942 5.1837 15.0453 7.00109 14.3826L8.96304 16.1721C9.27283 16.4593 9.72717 16.4593 10.037 16.1721L11.9989 14.3826C13.8163 15.0674 16.0054 16.2163 16.9141 17.2326H2.08587Z" fill="white"/>
</svg>
